<svg width="552" height="614" viewBox="0 0 552 614" fill="none" xmlns="http://www.w3.org/2000/svg">
<path d="M295.227 228.182V228.183C380.966 312.718 381.909 426.743 297.916 511.931C297.031 512.828 296.131 513.729 295.227 514.62L285.209 504.459C286.062 503.617 286.92 502.76 287.755 501.912C366.176 422.374 365.374 317.384 285.208 238.344L295.227 228.182ZM166.778 453.315C233.721 405.554 323.594 405.554 390.541 453.315L382.253 464.931C320.265 420.708 237.05 420.708 175.066 464.932L166.778 453.315ZM274.515 237.017C193.776 316.618 192.966 422.372 271.948 502.482C272.792 503.338 273.653 504.199 274.515 505.049L264.497 515.211C263.587 514.314 262.677 513.404 261.786 512.5C177.234 426.738 178.184 311.952 264.497 226.856L274.515 237.017ZM277.979 239.216C205.083 239.59 146.291 298.988 146.669 371.883C147.038 444.787 206.438 503.571 279.341 503.202L279.34 503.202C352.233 502.824 411.029 443.431 410.651 370.531C410.282 298.164 351.708 239.59 279.34 239.216L279.4 239.217L277.966 239.221C276.065 239.228 274.24 238.475 272.896 237.131C271.552 235.786 270.801 233.961 270.808 232.06V232.055L277.979 239.216ZM277.906 224.947C279.809 224.937 281.637 225.689 282.984 227.033C284.331 228.378 285.084 230.206 285.077 232.109V232.114L277.919 224.952L279.353 224.947L279.414 224.948C359.605 225.361 424.511 290.267 424.92 370.458C425.339 451.24 360.186 517.052 279.414 517.471L279.413 517.472C198.632 517.88 132.808 452.743 132.399 371.956C131.98 291.179 197.129 225.361 277.906 224.947ZM285.794 232.082V510.336L271.525 510.337L271.525 232.082L285.794 232.082ZM417.79 378.341L139.53 378.347L139.529 364.077L417.79 364.072L417.79 378.341ZM175.066 281.692C237.05 325.909 320.265 325.91 382.254 281.691L390.541 293.308C323.593 341.064 233.721 341.065 166.779 293.308L175.066 281.692Z" fill="white"/>
<path d="M124.309 206.787L123.604 46.1264L145.265 46.1634L145.182 36.7066C151.536 33.4408 158.907 30.6435 166.86 28.3841L166.741 6.45377C179.366 2.7521 195.35 0.480386 212.76 0.403846C236.034 0.301676 256.976 4.384 270.561 10.3996C284.094 4.26517 304.622 0.192413 327.89 0.0906133C345.305 0.0141433 361.303 2.1456 373.954 5.73624L374.033 27.6669C382.006 29.8566 389.401 32.5887 395.783 35.7987L395.784 45.2561L417.443 45.0289L418.148 205.689L124.306 206.787H124.309ZM365.274 12.4728C354.962 10.5329 342.213 8.91525 328.125 8.97684C306.207 9.0731 287.004 13.2782 274.796 17.9127L275.291 160.928C288.714 155.64 307.673 152.156 328.555 152.065C342.168 152.005 354.93 153.286 365.897 155.553L365.274 12.4728ZM213.66 182.828C186.218 182.949 161.783 188.904 145.87 198.053L145.309 55.0553L132.32 55.2446L132.947 198.122L409.441 197.101L408.813 53.8391L395.822 53.7641L396.517 197.145C380.525 188.136 356.037 182.396 328.59 182.516C306.551 182.613 286.47 186.155 271.169 192.4C255.808 186.29 235.696 182.732 213.657 182.828H213.66ZM176.121 156.205C187.074 153.835 199.818 152.442 213.431 152.382C234.318 152.291 253.302 155.614 266.775 160.778L266.009 17.3803C254.15 12.6592 234.715 9.00778 212.803 9.1041C198.92 9.165 186.07 11.0328 175.494 13.1183L176.121 156.205ZM270.979 170.451C259.903 164.869 238.26 160.975 213.469 161.084C195.447 161.163 179.206 163.273 167.405 166.594L166.946 37.1913C162.077 38.5869 157.772 40.3206 153.599 42.1074L154.538 184.773C170.784 178.213 191.307 174.219 213.628 174.12C235.199 174.026 255.094 177.364 271.133 183.397C287.118 177.223 306.984 173.903 328.555 173.808C350.876 173.71 371.43 177.332 387.735 183.75L387.416 41.2734C383.235 39.5169 378.915 37.8272 374.033 36.4745L374.521 166.836C362.693 163.62 346.62 160.692 328.599 160.771C303.807 160.88 282.009 164.964 270.98 170.644" fill="white"/>
<path d="M515.385 474.11L515.385 474.112C486.882 524.264 442.816 565.274 388.354 589.566L374.995 559.614C422.902 538.246 461.734 502.138 486.872 457.906L515.385 474.11Z" fill="white"/>
<path d="M372.19 596.166L372.19 596.168C357.331 601.687 341.802 605.992 325.696 608.948L325.696 608.949C282.636 616.849 240.035 614.262 200.563 602.981L209.575 571.448C244.301 581.372 281.793 583.66 319.777 576.69L319.777 576.691C333.999 574.08 347.688 570.284 360.767 565.424L372.19 596.166Z" fill="white"/>
<path d="M183.944 597.655L183.945 597.656C128.959 578.084 81.1334 541.335 48.1189 492.668L75.2597 474.256C104.331 517.111 146.483 549.51 194.941 566.757L183.944 597.655Z" fill="white"/>
<path d="M38.7911 477.926L38.7914 477.928C22.8406 450.844 11.2998 420.565 5.30729 387.908L5.30757 387.909C0.482028 361.611 -0.43329 335.476 2.1604 310.112L34.7866 313.448C32.5053 335.757 33.3056 358.776 37.565 381.989L37.5653 381.99C42.8534 410.809 53.0225 437.465 67.0504 461.283L38.7911 477.926Z" fill="white"/>
<path d="M4.4928 292.795L4.49307 292.796C14.2513 234.503 42.5953 181.297 84.2389 140.78L107.109 164.286C70.3936 200.009 45.4275 246.906 36.8391 298.21L4.4928 292.795Z" fill="white"/>
<path d="M450.824 125.629L450.824 125.63C494.86 161.8 527.959 211.782 542.81 270.532L511.013 278.569C497.938 226.844 468.817 182.85 430.007 150.971L450.824 125.629Z" fill="white"/>
<path d="M546.563 287.624L546.563 287.625C546.636 288.015 546.665 288.172 546.737 288.56L546.737 288.561C557.753 348.597 548.377 407.702 523.522 458.678L494.043 444.305C515.933 399.409 524.189 347.399 514.479 294.479L514.479 294.48C514.419 294.155 514.386 293.974 514.326 293.654L546.563 287.624Z" fill="white"/>
</svg>
