<svg width="783" height="222" viewBox="0 0 783 222" fill="none" xmlns="http://www.w3.org/2000/svg">
<path d="M217.667 109C217.667 169.015 169.015 217.667 109 217.667C48.9852 217.667 0.333252 169.015 0.333252 109C0.333252 48.9854 48.9852 0.333367 109 0.333367C169.015 0.333367 217.667 48.9854 217.667 109Z" fill="black"/>
<path d="M129.667 71.3887C127.495 70.166 125.028 69.5554 122.268 69.5554C114.485 69.5554 110.593 74.4674 110.593 84.2847V95.01H126.884V104.513H110.593V164.515H99.5293V104.513H87.6506V95.01H99.5293V83.742C99.5293 76.4567 101.633 70.6994 105.841 66.4674C110.051 62.2367 115.3 60.1207 121.589 60.1207C124.983 60.1207 127.675 60.5287 129.667 61.3434V71.3887Z" fill="#F2F2F2"/>
<path d="M129.667 71.3887C127.495 70.166 125.028 69.5554 122.268 69.5554C114.485 69.5554 110.593 74.4674 110.593 84.2847V95.01H126.884V104.513H110.593V164.515H99.5293V104.513H87.6506V95.01H99.5293V83.742C99.5293 76.4567 101.633 70.6994 105.841 66.4674C110.051 62.2367 115.3 60.1207 121.589 60.1207C124.983 60.1207 127.675 60.5287 129.667 61.3434V71.3887Z" stroke="white" stroke-width="4" stroke-miterlimit="10" stroke-linecap="round" stroke-linejoin="round"/>
<path d="M503 113C503 173.015 454.348 221.667 394.333 221.667C334.318 221.667 285.667 173.015 285.667 113C285.667 52.9854 334.318 4.33337 394.333 4.33337C454.348 4.33337 503 52.9854 503 113Z" fill="black"/>
<path d="M421.153 167H366.18C351.904 167 340.333 155.428 340.333 141.153V86.18C340.333 71.9054 351.904 60.3334 366.18 60.3334H421.153C435.428 60.3334 447 71.9054 447 86.18V141.153C447 155.428 435.428 167 421.153 167Z" stroke="white" stroke-width="5.33333" stroke-miterlimit="10"/>
<path d="M393.667 135.095C381.832 135.095 372.239 125.502 372.239 113.667C372.239 101.832 381.832 92.2377 393.667 92.2377C405.501 92.2377 415.095 101.832 415.095 113.667C415.095 125.502 405.501 135.095 393.667 135.095Z" stroke="white" stroke-width="5.33333" stroke-miterlimit="10"/>
<path d="M425.619 87.0951C422.647 87.0951 420.238 84.6858 420.238 81.7138C420.238 78.7418 422.647 76.3338 425.619 76.3338C428.591 76.3338 431 78.7418 431 81.7138C431 84.6858 428.591 87.0951 425.619 87.0951Z" fill="white"/>
<path d="M783 109C783 169.015 734.348 217.667 674.333 217.667C614.318 217.667 565.667 169.015 565.667 109C565.667 48.9854 614.318 0.333367 674.333 0.333367C734.348 0.333367 783 48.9854 783 109Z" fill="black"/>
<path d="M708.507 54H726.908L686.708 99.9463L734 162.469H696.97L667.967 124.549L634.782 162.469H616.37L659.368 113.324L614 54H651.97L678.186 88.66L708.507 54ZM702.049 151.455H712.245L646.429 64.4353H635.488L702.049 151.455Z" fill="white"/>
</svg>
